<svg id="Layer_5" enable-background="new 0 0 64 64" height="512" viewBox="0 0 64 64" width="512" xmlns="http://www.w3.org/2000/svg"><g><g><g><path d="m45 20v1c0 1.66-1.34 3-3 3-.83 0-1.58-.34-2.12-.88s-.88-1.29-.88-2.12v-1h3z" fill="#ccd1d9"/></g><g><path d="m45 19.21v.79h-3-3v-.75c0-1-.46-1.97-1.3-2.51-1.35-.86-2.42-2.11-3.06-3.59-.54-1.26-.76-2.7-.57-4.2.45-3.59 3.4-6.49 7-6.9 4.83-.54 8.93 3.22 8.93 7.95 0 2.83-1.47 5.31-3.68 6.73-.29.19-.54.43-.74.7-.38.5-.58 1.13-.58 1.78z" fill="#ffeaa7"/></g><g><circle cx="42" cy="10" fill="#fcd770" r="2"/></g><g><path d="m60 28v8h-5-5v-8z" fill="#e6e9ed"/></g><g><path d="m62 27v1h-2-10-2v-1l3.8-2.71 3.2-2.29z" fill="#d3a06c"/></g><g><path d="m50 44v2h-12v-2c0-1.1.9-2 2-2h8c1.1 0 2 .9 2 2z" fill="#969faa"/></g><g><path d="m50 58v2c0 1.1-.9 2-2 2h-8c-1.1 0-2-.9-2-2v-1.79-.21z" fill="#969faa"/></g><g><path d="m50 50.32v7.68h-12v-12h12z" fill="#69d6f4"/></g><g><path d="m31 58.98v3.02h-20v-4c0-1.1.9-2 2-2h16c1.1 0 2 .9 2 2z" fill="#b4dd7f"/></g><g><path d="m28 36c0-1.1.9-2 2-2 .34 0 .67.09.95.24.17.09.33.21.46.35.37.36.59.86.59 1.41v11c0 1.3-.42 2.56-1.2 3.6l-1.8 2.4v3h-16v-.04-2.96l-2.37-4.78c-.42-.83-.63-1.74-.63-2.67v-4.11c0-.81-.16-1.63-.47-2.38-.06-.15-.12-.29-.19-.43l-1.17-2.33c-.11-.22-.17-.47-.17-.72 0-.9.72-1.62 1.62-1.62h.09c3.48 0 6.29 2.81 6.29 6.28v-4.44-13.8c0-1.1.9-2 2-2 .55 0 1.05.22 1.41.59.37.36.59.86.59 1.41v12c0-1.1.9-2 2-2 .55 0 1.05.22 1.41.59.37.36.59.86.59 1.41 0-1.1.9-2 2-2 .55 0 1.05.22 1.41.59.37.36.59.86.59 1.41z" fill="#f0d0b4"/></g><g><path d="m8.81 39.43-4.25-4.24 1.22-2.36c-.52-.95-.94-1.96-1.24-3.02l-2.54-.81v-6l2.54-.81c.3-1.06.72-2.07 1.24-3.02l-1.22-2.36 4.25-4.25 2.36 1.22c.95-.52 1.96-.94 3.02-1.24l.81-2.54h6l.81 2.54c1.06.3 2.07.72 3.02 1.24l2.36-1.22.79.79 3.46 3.46-1.22 2.36c.52.95.94 1.96 1.24 3.02l2.54.81v6l-2.54.81c-.3 1.06-.72 2.07-1.24 3.02l.73 1.41c-.28-.15-.61-.24-.95-.24-1.1 0-2 .9-2 2v-2c0-.55-.22-1.05-.59-1.41-.36-.37-.86-.59-1.41-.59 1.26-1.67 2-3.75 2-6 0-5.52-4.48-10-10-10s-10 4.48-10 10c0 4.84 3.44 8.87 8 9.8v4.44c0-3.47-2.81-6.28-6.29-6.28h-.09c-.9 0-1.62.72-1.62 1.62 0 .25.06.5.17.72l1.17 2.33c.07.14.13.28.19.43z" fill="#fcd770"/></g></g><g><path d="m63 26.485-8-5.714-2.941 2.101c-1.361-2.08-3.02-3.916-4.951-5.483 2.436-1.684 3.892-4.418 3.892-7.389 0-2.561-1.096-5.008-3.006-6.714-1.91-1.707-4.479-2.515-7.039-2.228-4.051.458-7.365 3.723-7.88 7.763-.141 1.104-.061 2.185.177 3.218-1.647-.085-3.302.005-4.918.253l-.951-.951-2.549 1.312c-.71-.362-1.456-.67-2.229-.919l-.876-2.734h-7.459l-.876 2.734c-.773.249-1.52.557-2.229.919l-2.549-1.312-5.274 5.274 1.312 2.549c-.362.71-.67 1.456-.919 2.229l-2.735.878v7.459l2.734.876c.249.774.557 1.521.919 2.229l-1.312 2.549 5.274 5.273.291-.149c.057.309.094.621.094.934v4.108c0 1.075.253 2.151.73 3.112l2.27 4.572v1.95c-1.161.414-2 1.514-2 2.816v5h22v-3c1.686 0 3.361-.183 5-.53v.53c0 1.654 1.346 3 3 3h8c1.654 0 3-1.346 3-3v-9.355c3.061-3.963 4.757-8.654 4.959-13.645h5.041v-8h2zm-2.721.515h-10.558l5.279-3.771zm-16.279-6c0 1.103-.897 2-2 2s-2-.897-2-2zm-3-11c0-.552.448-1 1-1s1 .448 1 1-.448 1-1 1-1-.448-1-1zm-5.94-.926c.399-3.137 2.974-5.672 6.12-6.027.278-.032.555-.048.829-.048 1.725 0 3.353.617 4.652 1.778 1.486 1.328 2.339 3.232 2.339 5.223 0 2.39-1.204 4.591-3.219 5.887-1.058.68-1.704 1.833-1.768 3.113h-1.013v-6.184c1.161-.414 2-1.514 2-2.816 0-1.654-1.346-3-3-3s-3 1.346-3 3c0 1.302.839 2.402 2 2.816v6.184h-1.015c-.074-1.292-.711-2.439-1.749-3.103-2.308-1.474-3.525-4.088-3.176-6.823zm-28.406 23.264c-.484-.866-.872-1.807-1.152-2.797l-.146-.517-2.356-.753v-4.541l2.356-.754.146-.517c.279-.988.667-1.93 1.153-2.797l.262-.469-1.13-2.194 3.212-3.212 2.194 1.13.469-.262c.867-.486 1.809-.874 2.797-1.153l.517-.146.753-2.356h4.541l.754 2.356.517.146c.988.279 1.93.667 2.797 1.153l.469.262 2.194-1.13 3.212 3.212-1.13 2.194.262.469c.486.867.874 1.809 1.153 2.797l.146.517 2.356.753v4.541l-2.356.754-.146.517c-.28.99-.668 1.931-1.152 2.797l-.263.468.156.304c-.121.032-.241.065-.355.11-.203-.75-.685-1.38-1.333-1.775.946-1.652 1.449-3.507 1.449-5.445 0-6.065-4.935-11-11-11s-11 4.935-11 11c0 2.612.931 5.053 2.501 6.97-1.388.063-2.501 1.203-2.501 2.606 0 .261.054.518.131.768l-1.344-1.343 1.13-2.195zm17.346-.558c-.532-.48-1.229-.78-2-.78-.352 0-.686.072-1 .184v-9.184c0-1.654-1.346-3-3-3s-3 1.346-3 3v12.479c-3.538-1.253-6-4.637-6-8.479 0-4.963 4.037-9 9-9s9 4.037 9 9c0 1.826-.543 3.563-1.563 5.057-.548.105-1.038.363-1.437.723zm-12.479 15.993c-.34-.686-.521-1.455-.521-2.222v-4.108c0-1.125-.267-2.252-.77-3.259l-1.165-2.331c-.043-.085-.065-.181-.065-.277 0-.341.277-.618.714-.618 2.915.001 5.286 2.373 5.286 5.287v1.713 2h2v-2-1.713-18.245c0-.552.448-1 1-1s1 .448 1 1v12 4h2v-4c0-.552.448-1 1-1s1 .448 1 1v4h2v-4c0-.552.448-1 1-1s1 .448 1 1v2 2h2v-2c0-.552.448-1 1-1s1 .448 1 1v11c0 1.075-.355 2.141-1 3l-2 2.667v2.333h-14v-2.234zm18.479 13.227h-18v-3c0-.552.448-1 1-1h16c.552 0 1 .448 1 1zm19-16h-10v-1c0-.552.448-1 1-1h8c.552 0 1 .448 1 1zm-10 2h10v10h-10zm9 14h-8c-.552 0-1-.448-1-1v-1h10v1c0 .552-.448 1-1 1zm3-13.926v-3.074c0-1.654-1.346-3-3-3h-8c-1.654 0-3 1.346-3 3v13.412c-1.638.379-3.324.57-5.002.571-.007-1.295-.842-2.387-1.998-2.799v-1.851l1.6-2.133c.903-1.203 1.4-2.694 1.4-4.2v-11c0-1.018-.512-1.916-1.29-2.459l-.364-.706c.362-.709.67-1.455.919-2.229l2.735-.877v-7.459l-2.734-.876c-.249-.773-.557-1.52-.919-2.229l1.312-2.549-2.526-2.526c1.286-.107 2.584-.102 3.869.013.712 1.387 1.775 2.596 3.158 3.48.518.331.84.97.84 1.667v1.75c0 2.206 1.794 4 4 4s4-1.794 4-4v-1.791c0-.046.013-.088.016-.134 1.721 1.424 3.199 3.085 4.416 4.959l-3.432 2.451v2.515h2v8h4.959c-.159 3.594-1.164 7.013-2.959 10.074zm8-12.074h-8v-6h8z"/><path d="m41 35h2v2h-2z"/><path d="m45 35h2v2h-2z"/><path d="m37 35h2v2h-2z"/></g></g></svg>