<svg id="_x33_0" enable-background="new 0 0 64 64" height="512" viewBox="0 0 64 64" width="512" xmlns="http://www.w3.org/2000/svg"><g><g><g><path d="m40 50h17v12h-17z" fill="#ff826e"/></g><g><path d="m44 32v5c0 1.1-.9 2-2 2-.55 0-1.05-.22-1.41-.59-.37-.36-.59-.86-.59-1.41v-5z" fill="#e6e9ed"/></g><g><path d="m40 50v12h-36c-1.1 0-2-.9-2-2v-38h28v4h-24v12h30v.6c0 1.15.11 2.29.32 3.4h-12.32v4h13.57c.63 1.42 1.44 2.77 2.43 4z" fill="#e6e9ed"/></g><g><path d="m37.57 46h-13.57v-4h12.32c.26 1.38.68 2.72 1.25 4z" fill="#fcd770"/></g><g><path d="m12 50h6c0 3.31-2.69 6-6 6-1.66 0-3.16-.67-4.24-1.76z" fill="#fcd770"/></g><g><path d="m12 44v6l-4.24 4.24c-1.09-1.08-1.76-2.58-1.76-4.24 0-3.31 2.69-6 6-6z" fill="#4fc1e9"/></g><g><path d="m18 50h-6v-6c3.31 0 6 2.69 6 6z" fill="#ff826e"/></g><g><path d="m36 32v6h-30v-12h24v4c0 1.1.9 2 2 2z" fill="#ff826e"/></g><g><path d="m30 10v12h-28v-10c0-1.1.9-2 2-2z" fill="#5cd6b3"/></g><g><path d="m22 14h4v4h-4z" fill="#e6e9ed"/></g><g><path d="m46 20c-.55 0-1.05.22-1.41.59-.37.36-.59.86-.59 1.41v10h-4v-1c0-1.66-1.34-3-3-3-.55 0-1 .45-1 1v3h-4c-1.1 0-2-.9-2-2v-4-4-12-6c0-1.1.9-2 2-2h28c1.1 0 2 .9 2 2v26c0 1.1-.9 2-2 2 0-.55-.22-1.05-.59-1.41-.36-.37-.86-.59-1.41-.59-1.1 0-2 .9-2 2v-2c0-1.1-.9-2-2-2-.55 0-1.05.22-1.41.59-.37.36-.59.86-.59 1.41v-2c0-1.1-.9-2-2-2-.55 0-1.05.22-1.41.59-.37.36-.59.86-.59 1.41v-6c0-1.1-.9-2-2-2z" fill="#ffeaa7"/></g><g><path d="m56 32c0-1.1.9-2 2-2 .55 0 1.05.22 1.41.59.37.36.59.86.59 1.41v7.17c0 3.81-1.04 7.56-3 10.83h-17c-.99-1.23-1.8-2.58-2.43-4-.57-1.28-.99-2.62-1.25-4-.21-1.11-.32-2.25-.32-3.4v-.6-6-3c0-.55.45-1 1-1 1.66 0 3 1.34 3 3v1 5c0 .55.22 1.05.59 1.41.36.37.86.59 1.41.59 1.1 0 2-.9 2-2v-5-10c0-.55.22-1.05.59-1.41.36-.37.86-.59 1.41-.59 1.1 0 2 .9 2 2v6c0-.55.22-1.05.59-1.41.36-.37.86-.59 1.41-.59 1.1 0 2 .9 2 2v2c0-.55.22-1.05.59-1.41.36-.37.86-.59 1.41-.59 1.1 0 2 .9 2 2z" fill="#f0d0b4"/></g><g><circle cx="56" cy="12" fill="#ff826e" r="2"/></g><g><circle cx="46" cy="10" fill="#ff826e" r="2"/></g><g><circle cx="36" cy="16" fill="#ff826e" r="2"/></g><g><path d="m14 14h4v4h-4z" fill="#e6e9ed"/></g><g><path d="m6 14h4v4h-4z" fill="#e6e9ed"/></g></g><g><path d="m37 13.184v-6.184h-2v6.184c-1.161.414-2 1.514-2 2.816s.839 2.402 2 2.816v6.184h2v-6.184c1.161-.414 2-1.514 2-2.816s-.839-2.402-2-2.816zm-1 3.816c-.552 0-1-.448-1-1s.448-1 1-1 1 .448 1 1-.448 1-1 1z"/><path d="m57 9.184v-2.184h-2v2.184c-1.161.414-2 1.514-2 2.816s.839 2.402 2 2.816v10.184h2v-10.184c1.161-.414 2-1.514 2-2.816s-.839-2.402-2-2.816zm-1 3.816c-.552 0-1-.448-1-1s.448-1 1-1 1 .448 1 1-.448 1-1 1z"/><path d="m60 1h-28c-1.654 0-3 1.346-3 3v5h-25c-1.654 0-3 1.346-3 3v48c0 1.654 1.346 3 3 3h54v-12.727c1.964-3.369 3-7.202 3-11.104v-6.353c1.161-.414 2-1.514 2-2.816v-26c0-1.654-1.346-3-3-3zm-28 32h3v4h-28v-10h22v3c0 1.654 1.346 3 3 3zm-29-21c0-.552.448-1 1-1h25v10h-26zm36 49h-35c-.552 0-1-.448-1-1v-37h26v2h-24v14h30.017c.014.671.068 1.337.152 2h-12.169v6h13.952c.57 1.176 1.246 2.303 2.048 3.346zm-3.476-18c.16.677.353 1.345.584 2h-11.108v-2zm20.476 18h-15v-10h15zm3-21.831c0 3.448-.9 6.832-2.588 9.831h-15.905c-2.258-2.985-3.507-6.656-3.507-10.403v-9.597c1.103 0 2 .897 2 2v6c0 1.654 1.346 3 3 3s3-1.346 3-3v-15c0-.552.448-1 1-1s1 .448 1 1v16h2v-10c0-.552.448-1 1-1s1 .448 1 1v10h2v-8c0-.552.448-1 1-1s1 .448 1 1v8h2v-6c0-.552.448-1 1-1s1 .448 1 1zm-18-2.169v-4h2v4c0 .552-.448 1-1 1s-1-.448-1-1zm4-27c0-.552.448-1 1-1s1 .448 1 1-.448 1-1 1-1-.448-1-1zm16 20c0 .28-.116.531-.302.713-.483-1.009-1.506-1.713-2.698-1.713-.395 0-.77.081-1.116.22-.345-1.275-1.501-2.22-2.884-2.22-.395 0-.77.081-1.116.22-.345-1.275-1.501-2.22-2.884-2.22-.352 0-.686.072-1 .184v-3.184c0-1.302-.839-2.402-2-2.816v-6.369c1.161-.414 2-1.514 2-2.816 0-1.654-1.346-3-3-3s-3 1.346-3 3c0 1.302.839 2.402 2 2.816v6.369c-1.161.414-2 1.514-2 2.816v9h-2c0-2.206-1.794-4-4-4-1.103 0-2 .897-2 2v2h-3c-.552 0-1-.448-1-1v-26c0-.552.448-1 1-1h28c.552 0 1 .448 1 1z"/><path d="m12 43c-3.859 0-7 3.141-7 7s3.141 7 7 7 7-3.141 7-7-3.141-7-7-7zm-5 7c0-2.414 1.721-4.434 4-4.899v4.485l-3.167 3.167c-.524-.791-.833-1.736-.833-2.753zm5 5c-1.017 0-1.962-.309-2.753-.833l3.167-3.167h4.485c-.465 2.279-2.485 4-4.899 4zm1-6v-3.899c1.956.399 3.5 1.943 3.899 3.899z"/><path d="m23 49h4v2h-4z"/><path d="m29 49h8v2h-8z"/><path d="m23 57h4v2h-4z"/><path d="m29 57h8v2h-8z"/><path d="m23 53h14v2h-14z"/><path d="m5 19h6v-6h-6zm2-4h2v2h-2z"/><path d="m13 19h6v-6h-6zm2-4h2v2h-2z"/><path d="m21 19h6v-6h-6zm2-4h2v2h-2z"/></g></g></svg>